<?xml version="1.0" encoding="UTF-8"?> <svg xmlns="http://www.w3.org/2000/svg" xmlns:xlink="http://www.w3.org/1999/xlink" id="Laag_2" data-name="Laag 2" viewBox="0 0 300.3 64.08"><defs><style> .cls-1 { fill: #00a69c; } .cls-1, .cls-2, .cls-3, .cls-4, .cls-5 { stroke-width: 0px; } .cls-2 { fill: #00997e; } .cls-3 { fill: url(#linear-gradient); } .cls-4 { fill: url(#linear-gradient-2); } .cls-5 { fill: url(#linear-gradient-3); } </style><linearGradient id="linear-gradient" x1="86.06" y1="215.02" x2="149.99" y2="215.02" gradientTransform="translate(270.23 89.39) rotate(132.25)" gradientUnits="userSpaceOnUse"><stop offset="0" stop-color="#00adee"></stop><stop offset=".12" stop-color="#31b4be"></stop><stop offset=".32" stop-color="#7bc075"></stop><stop offset=".49" stop-color="#b2c840"></stop><stop offset=".61" stop-color="#d4ce20"></stop><stop offset=".68" stop-color="#e1d014"></stop><stop offset=".72" stop-color="#e4b817"></stop><stop offset=".8" stop-color="#e9941b"></stop><stop offset=".88" stop-color="#ed7a1f"></stop><stop offset=".95" stop-color="#f06a21"></stop><stop offset="1" stop-color="#f16522"></stop></linearGradient><linearGradient id="linear-gradient-2" x1="285.67" y1="148.24" x2="285.67" y2="198.17" gradientTransform="translate(-292.18 -49.34) rotate(-17.13)" gradientUnits="userSpaceOnUse"><stop offset="0" stop-color="#00adee"></stop><stop offset=".13" stop-color="#0baadd"></stop><stop offset=".39" stop-color="#29a4b3"></stop><stop offset=".74" stop-color="#599a6e"></stop><stop offset="1" stop-color="#809339"></stop></linearGradient><linearGradient id="linear-gradient-3" x1="286.57" y1="177.88" x2="300.47" y2="206.71" gradientTransform="translate(-295.5 -70.37) rotate(-15.16)" gradientUnits="userSpaceOnUse"><stop offset="0" stop-color="#7b61a9"></stop><stop offset=".14" stop-color="#7365ad"></stop><stop offset=".36" stop-color="#5e72b8"></stop><stop offset=".62" stop-color="#3c87cb"></stop><stop offset=".92" stop-color="#0ea4e6"></stop><stop offset="1" stop-color="#00adee"></stop></linearGradient></defs><g id="Layer_1" data-name="Layer 1"><g><g><path class="cls-2" d="M78.88,29.94l-1.54,1.81v5.38h-4.08v-17.77h4.08v7.73l7.14-8.02,4.32.67-6.95,7.78,7.19,9.62h-4.98l-5.17-7.19Z"></path><path class="cls-2" d="M90.66,18.3h3.81v18.84h-3.81v-18.84Z"></path><path class="cls-2" d="M101.13,22.37c-.37.35-.91.53-1.57.53s-1.2-.19-1.57-.53c-.37-.35-.56-.83-.56-1.41s.19-1.01.56-1.36c.37-.35.91-.53,1.57-.53s1.2.19,1.57.53c.37.35.56.8.56,1.36s-.19,1.07-.56,1.41Z"></path><rect class="cls-2" x="97.62" y="24.77" width="3.81" height="12.36"></rect><path class="cls-2" d="M121.01,30.02c0-.35-.03-.67-.05-.96s-.11-.56-.24-.77c-.13-.21-.32-.37-.56-.51-.24-.13-.56-.19-.96-.19-.59,0-1.07.13-1.44.4s-.72.61-1.04,1.01v8.15h-3.81v-7.11c0-.35-.03-.67-.08-.96-.05-.29-.13-.56-.27-.77-.13-.21-.32-.4-.56-.53-.24-.13-.56-.19-.96-.19-.56,0-1.04.13-1.44.4s-.75.59-1.07.99v8.15h-3.81v-8.82c0-.37-.03-.75-.08-1.09-.05-.35-.13-.69-.24-1.04-.11-.35-.27-.67-.48-.93l3.3-.85c.35.21.61.51.77.88s.27.75.32,1.15c.51-.61,1.12-1.12,1.84-1.49s1.49-.56,2.32-.56,1.57.16,2.21.48c.64.32,1.15.88,1.49,1.68.61-.67,1.25-1.2,1.92-1.6.67-.4,1.49-.59,2.45-.59.67,0,1.33.13,1.97.4.64.27,1.14.67,1.52,1.2.29.4.48.85.56,1.36.08.51.11,1.01.11,1.52v8.31h-3.81l.11-7.11Z"></path><path class="cls-2" d="M138.87,37.43c-.11.03-.29.08-.56.13-.27.05-.61.08-1.04.08-.29,0-.59-.03-.88-.08-.29-.05-.56-.13-.83-.24s-.48-.27-.67-.45-.32-.45-.4-.77c-.61.48-1.2.85-1.76,1.12s-1.25.4-2.05.4c-1.17,0-2.11-.35-2.77-1.04-.67-.69-1.01-1.63-1.01-2.8,0-.93.24-1.68.72-2.24s1.09-.99,1.81-1.28c.72-.29,1.49-.51,2.32-.61.83-.11,1.6-.19,2.32-.21,0-.75-.16-1.31-.51-1.68-.35-.37-.93-.56-1.76-.56-.72,0-1.41.11-2.08.35s-1.33.53-1.97.88v-2.69c.8-.4,1.62-.72,2.48-.96.85-.24,1.73-.37,2.64-.37.75,0,1.47.11,2.16.29.69.19,1.31.53,1.81,1.04.43.43.72.96.85,1.6.13.64.21,1.28.21,1.95v3.78c0,.29.03.56.05.8.03.24.08.45.16.61s.21.29.37.4.4.16.69.16h.11s.08,0,.16-.03l-.51,2.29-.08.13ZM134.07,31.27c-.35.05-.75.11-1.17.19-.43.08-.83.21-1.2.4s-.67.43-.91.72c-.24.29-.37.67-.37,1.12s.16.83.45,1.12.67.43,1.12.43c.37,0,.75-.08,1.09-.24.35-.16.67-.35.96-.53v-3.2h.03Z"></path><path class="cls-2" d="M152.41,37.43c-.11.03-.29.08-.56.13-.27.05-.61.08-1.04.08-.29,0-.59-.03-.88-.08-.29-.05-.56-.13-.83-.24s-.48-.27-.67-.45-.32-.45-.4-.77c-.61.48-1.2.85-1.76,1.12s-1.25.4-2.05.4c-1.17,0-2.11-.35-2.77-1.04-.67-.69-1.01-1.63-1.01-2.8,0-.93.24-1.68.72-2.24s1.09-.99,1.81-1.28c.72-.29,1.49-.51,2.32-.61.83-.11,1.6-.19,2.32-.21,0-.75-.16-1.31-.51-1.68-.35-.37-.93-.56-1.76-.56-.72,0-1.41.11-2.08.35s-1.33.53-1.97.88v-2.69c.8-.4,1.62-.72,2.48-.96.85-.24,1.73-.37,2.64-.37.75,0,1.47.11,2.16.29.69.19,1.31.53,1.81,1.04.43.43.72.96.85,1.6.13.64.21,1.28.21,1.95v3.78c0,.29.03.56.05.8.03.24.08.45.16.61s.21.29.37.4.4.16.69.16h.11s.08,0,.16-.03l-.51,2.29-.08.13ZM147.61,31.27c-.35.05-.75.11-1.17.19-.43.08-.83.21-1.2.4s-.67.43-.91.72c-.24.29-.37.67-.37,1.12s.16.83.45,1.12.67.43,1.12.43c.37,0,.75-.08,1.09-.24.35-.16.67-.35.96-.53v-3.2h.03Z"></path><path class="cls-2" d="M163.52,36.5c-.67.37-1.33.64-2,.8s-1.39.24-2.16.24c-2.69,0-4.05-1.36-4.05-4.05v-5.83l-2.43.03v-2.37c.75-.05,1.36-.16,1.84-.35s.88-.45,1.2-.77c.32-.32.59-.75.77-1.25.19-.51.37-1.09.53-1.79h1.81v3.7h3.57v2.77h-3.57v4.48c0,.35.03.67.05.96.03.29.11.53.21.75.11.21.29.37.53.48.24.11.56.16.96.16.19,0,.4-.03.64-.08.24-.05.45-.11.67-.16.21-.05.4-.11.56-.16.16-.05.27-.08.32-.11l.56,2.45-.03.11Z"></path><path class="cls-1" d="M193.19,35.48c-.77.77-1.57,1.33-2.5,1.68-.93.35-1.92.51-2.98.51s-1.92-.16-2.72-.48c-.8-.32-1.47-.77-2.03-1.36-.56-.59-.99-1.28-1.28-2.08-.29-.8-.45-1.68-.45-2.64s.16-1.81.48-2.61c.32-.8.77-1.52,1.33-2.13.56-.61,1.25-1.09,2.05-1.44.8-.35,1.68-.51,2.64-.51.8,0,1.49.11,2.08.32.59.21,1.09.51,1.52.85.43.35.77.72,1.04,1.14.27.43.48.83.61,1.23.13.4.24.77.29,1.09.05.32.08.56.08.69l-1.31,1.63h-6.95c.13.93.51,1.71,1.15,2.29.64.59,1.44.88,2.4.88.67,0,1.31-.11,1.89-.32.59-.21,1.17-.53,1.73-.93l1.04,2.08-.11.11ZM189.99,29.41c-.03-.72-.24-1.28-.67-1.71-.43-.43-.99-.64-1.71-.64s-1.31.21-1.76.64c-.45.43-.75.99-.88,1.71h5.01Z"></path><path class="cls-1" d="M204.73,33.67c0,.72-.16,1.33-.48,1.84-.32.51-.72.91-1.23,1.23-.51.32-1.07.56-1.71.72-.64.16-1.25.24-1.87.24-.91,0-1.79-.13-2.64-.4s-1.63-.69-2.34-1.28l1.12-2.51c.45.37.96.69,1.52.96s1.15.4,1.76.4c.45,0,.83-.08,1.09-.27.27-.19.4-.48.4-.88,0-.32-.13-.59-.4-.8s-.59-.4-.96-.59-.77-.37-1.23-.56-.85-.43-1.23-.72-.69-.67-.96-1.09c-.27-.43-.4-.99-.4-1.65s.13-1.25.4-1.73.64-.88,1.09-1.2c.45-.32.96-.56,1.54-.72.59-.16,1.17-.24,1.76-.24.77,0,1.52.11,2.21.29.69.19,1.39.48,2.05.85l-.85,2.61c-.43-.27-.85-.51-1.31-.72-.45-.21-.93-.32-1.44-.32-.91,0-1.36.35-1.36,1.07,0,.32.13.59.4.77s.59.37.99.56c.4.19.83.37,1.28.56s.88.43,1.28.72c.4.29.72.67.99,1.09.27.43.4.99.4,1.65l.11.11Z"></path><path class="cls-1" d="M219.57,30.77c0,.93-.16,1.81-.45,2.64-.29.83-.72,1.55-1.28,2.16-.56.61-1.23,1.09-2,1.44-.77.35-1.65.51-2.61.51-.48,0-.88-.03-1.23-.08-.35-.05-.75-.16-1.2-.29v6.63h-3.81v-14.55c0-.85-.05-1.63-.13-2.34s-.29-1.28-.64-1.71l3.25-.88c.45.27.77.69.96,1.25.56-.37,1.15-.67,1.76-.88.61-.21,1.28-.32,1.97-.32.88,0,1.65.16,2.32.51.67.35,1.25.8,1.73,1.39s.85,1.28,1.09,2.08c.24.8.37,1.63.37,2.5l-.11-.05ZM215.73,30.95c0-.45-.05-.88-.19-1.31-.13-.43-.32-.8-.59-1.12-.27-.32-.59-.59-.96-.77s-.8-.29-1.31-.29c-.35,0-.67.05-.99.13-.32.08-.61.19-.91.32v6.1c.27.19.59.32.93.4.35.08.67.13.96.13.51,0,.96-.11,1.33-.29s.69-.45.93-.77c.24-.32.43-.69.56-1.12.13-.43.19-.91.19-1.41h.03Z"></path><path class="cls-1" d="M230.52,28.42c-.27-.11-.53-.21-.8-.29-.27-.08-.56-.13-.85-.13-.32,0-.61.05-.88.19-.27.13-.51.29-.75.51-.24.21-.45.45-.64.72-.19.27-.37.53-.56.8v6.98h-3.81v-8.58c0-.56-.03-1.15-.11-1.73s-.29-1.12-.64-1.57l3.28-.88c.24.16.43.35.56.59.13.24.24.48.32.75s.13.53.16.8c.03.27.05.53.05.8.19-.37.4-.75.64-1.09.24-.35.51-.67.8-.96s.61-.53.96-.69.75-.24,1.2-.24c.35,0,.69.05,1.01.16.32.11.64.24.93.4l-.85,3.44-.03.05Z"></path><path class="cls-1" d="M243.82,35.48c-.77.77-1.57,1.33-2.5,1.68-.93.35-1.92.51-2.98.51s-1.92-.16-2.72-.48c-.8-.32-1.47-.77-2.03-1.36-.56-.59-.99-1.28-1.28-2.08-.29-.8-.45-1.68-.45-2.64s.16-1.81.48-2.61c.32-.8.77-1.52,1.33-2.13.56-.61,1.25-1.09,2.05-1.44.8-.35,1.68-.51,2.64-.51.8,0,1.49.11,2.08.32.59.21,1.09.51,1.52.85.43.35.77.72,1.04,1.14.27.43.48.83.61,1.23.13.4.24.77.29,1.09.05.32.08.56.08.69l-1.31,1.63h-6.95c.13.93.51,1.71,1.15,2.29.64.59,1.44.88,2.4.88.67,0,1.31-.11,1.89-.32.59-.21,1.17-.53,1.73-.93l1.04,2.08-.11.11ZM240.63,29.41c-.03-.72-.24-1.28-.67-1.71-.43-.43-.99-.64-1.71-.64s-1.31.21-1.76.64c-.45.43-.75.99-.88,1.71h5.01Z"></path><path class="cls-1" d="M251.05,32.37l-1.01,1.09v3.68h-3.78v-18.84h3.81v10.92l4.5-4.74,3.97.69-4.77,5.01,5.36,6.95h-4.5l-3.57-4.77Z"></path><path class="cls-1" d="M265.41,32.37l-1.01,1.09v3.68h-3.78v-18.84h3.81v10.92l4.5-4.74,3.97.69-4.77,5.01,5.36,6.95h-4.5l-3.57-4.77Z"></path><path class="cls-1" d="M285.69,35.48c-.77.77-1.57,1.33-2.5,1.68-.93.35-1.92.51-2.98.51s-1.92-.16-2.72-.48c-.8-.32-1.47-.77-2.03-1.36-.56-.59-.99-1.28-1.28-2.08-.29-.8-.45-1.68-.45-2.64s.16-1.81.48-2.61c.32-.8.77-1.52,1.33-2.13.56-.61,1.25-1.09,2.05-1.44.8-.35,1.68-.51,2.64-.51.8,0,1.49.11,2.08.32.59.21,1.09.51,1.52.85.43.35.77.72,1.04,1.14.27.43.48.83.61,1.23.13.4.24.77.29,1.09.05.32.08.56.08.69l-1.31,1.63h-6.95c.13.93.51,1.71,1.15,2.29.64.59,1.44.88,2.4.88.67,0,1.31-.11,1.89-.32.59-.21,1.17-.53,1.73-.93l1.04,2.08-.11.11ZM282.49,29.41c-.03-.72-.24-1.28-.67-1.71-.43-.43-.99-.64-1.71-.64s-1.31.21-1.76.64c-.45.43-.75.99-.88,1.71h5.01Z"></path><path class="cls-1" d="M296.4,30.21c0-.35-.03-.67-.08-.99-.05-.32-.16-.59-.29-.83-.13-.24-.32-.43-.56-.56-.24-.13-.56-.21-.96-.21-.56,0-1.04.13-1.44.37-.4.24-.77.56-1.12.96v8.21h-3.81v-8.82c0-.37-.03-.75-.08-1.12-.05-.37-.13-.72-.24-1.07-.11-.35-.27-.64-.48-.91l3.33-.85c.37.21.64.51.77.88.13.37.24.75.29,1.15.61-.64,1.25-1.15,1.94-1.49.69-.35,1.49-.53,2.4-.53.77,0,1.47.16,2.08.45.61.29,1.09.72,1.44,1.28.24.4.43.83.53,1.31s.16.99.16,1.49v8.21h-3.81l-.08-6.93Z"></path><path class="cls-1" d="M178.61,24.13c-.59-.45-1.23-.8-1.92-1.01-.69-.21-1.36-.32-2.02-.32-.88,0-1.68.19-2.4.56-.72.37-1.33.88-1.84,1.52-.51.64-.91,1.36-1.2,2.18-.29.83-.43,1.68-.43,2.56,0,1.57.4,2.8,1.2,3.7s1.92,1.36,3.36,1.36c.51,0,.91-.05,1.23-.13.32-.08.67-.24,1.01-.45l.53-3.46h-3.06l.48-2.77h6.53l-1.2,8.23c-.99.61-1.97,1.07-2.96,1.36-.99.29-2.08.43-3.25.43s-2.29-.19-3.28-.56c-.99-.37-1.81-.91-2.5-1.6-.69-.69-1.23-1.52-1.6-2.48s-.56-2.05-.56-3.25c0-1.49.27-2.88.8-4.18.53-1.31,1.25-2.42,2.16-3.38.91-.96,1.95-1.73,3.14-2.29,1.2-.56,2.48-.85,3.84-.85.91,0,1.71.08,2.4.21.69.13,1.31.29,1.81.48.51.19.91.37,1.2.56s.51.32.64.4l-1.86,3.14-.24.05Z"></path></g><g><path class="cls-3" d="M9.8,8.67s.05-.05.07-.07c.24-.22.47-.44.71-.65.51-.45,1.28-.4,1.73.11s.4,1.27-.11,1.73c-.22.2-.44.4-.66.6-.49.46-1.27.44-1.73-.06-.44-.47-.44-1.19-.01-1.66ZM4.06,15.92c.38-.42,1-.53,1.51-.24.59.34.79,1.08.45,1.67-.15.26-.29.52-.43.78-.32.6-1.06.82-1.65.5-.6-.32-.82-1.06-.5-1.65.15-.28.31-.56.47-.84.05-.08.1-.15.16-.22ZM18.26,3.04c.11-.12.25-.22.41-.29.29-.13.59-.26.89-.38.62-.26,1.34.04,1.6.66.26.62-.04,1.34-.66,1.6-.28.11-.55.23-.82.35-.62.28-1.34,0-1.61-.62-.2-.46-.1-.97.21-1.32ZM.55,25.45c.28-.3.7-.46,1.13-.38.66.13,1.1.77.97,1.43-.06.29-.11.58-.15.88-.11.67-.73,1.12-1.4,1.02S-.02,27.66.09,26.99c.05-.32.11-.63.17-.95.04-.23.15-.43.3-.59ZM28.09.47c.2-.22.48-.37.79-.39.32-.03.64-.05.96-.07.67-.04,1.25.47,1.29,1.15.04.67-.47,1.25-1.15,1.29-.3.02-.59.04-.89.07-.67.06-1.27-.43-1.33-1.11-.03-.35.09-.69.31-.93ZM.32,35.61c.18-.2.44-.35.73-.39.67-.09,1.29.37,1.38,1.04.04.29.09.59.14.88.12.67-.33,1.3-.99,1.41-.67.12-1.3-.33-1.41-.99-.06-.32-.11-.64-.15-.96-.05-.37.07-.73.31-.99ZM38.23,1.22c.29-.32.74-.48,1.2-.37.31.08.62.16.93.24.65.18,1.03.85.85,1.5-.18.65-.85,1.03-1.5.85-.29-.08-.57-.15-.86-.22-.66-.16-1.06-.82-.9-1.48.05-.2.15-.39.28-.53ZM3.39,45.3c.1-.11.21-.2.35-.27.6-.31,1.34-.07,1.64.53.14.27.28.53.42.79.33.59.11,1.33-.48,1.66-.59.33-1.33.11-1.66-.48-.16-.28-.31-.57-.45-.85-.24-.47-.15-1.01.18-1.38ZM47.57,5.22c.39-.43,1.06-.53,1.57-.21.27.17.54.35.8.53.56.38.7,1.14.32,1.7-.38.56-1.14.7-1.7.32-.25-.17-.49-.33-.74-.49-.57-.37-.73-1.12-.37-1.69.04-.06.08-.11.12-.16ZM9.45,53.46s.02-.02.03-.03c.47-.49,1.24-.5,1.73-.03.21.21.43.41.65.61l.1.09c.5.45.54,1.23.08,1.73s-1.23.54-1.73.08l-.09-.08c-.25-.23-.48-.45-.71-.67-.48-.46-.5-1.21-.06-1.7ZM55.1,12.04s.09-.09.15-.14c.53-.42,1.3-.33,1.72.2.2.25.4.51.59.77.4.54.29,1.31-.25,1.71-.54.4-1.31.29-1.71-.25-.18-.24-.36-.47-.54-.71-.38-.48-.34-1.15.05-1.58ZM17.93,59.27c.35-.38.92-.52,1.42-.29.27.13.54.25.81.36.62.26.91.98.64,1.6-.27.62-.98.91-1.6.64-.3-.13-.59-.26-.88-.39-.61-.28-.88-1.01-.6-1.62.05-.12.12-.22.2-.31ZM60.02,20.93c.13-.15.3-.26.5-.33.64-.22,1.33.11,1.56.75.11.3.21.61.31.92.2.64-.15,1.33-.79,1.54-.64.2-1.33-.15-1.54-.79-.09-.28-.19-.57-.28-.85-.15-.44-.04-.91.25-1.23ZM27.73,61.95c.25-.28.63-.44,1.03-.39.3.03.59.06.89.08.67.05,1.18.63,1.13,1.31-.05.67-.63,1.18-1.31,1.13-.32-.02-.64-.05-.96-.08-.67-.07-1.16-.67-1.09-1.34.03-.27.14-.51.31-.7ZM61.77,30.95c.22-.24.54-.4.89-.4.67,0,1.23.54,1.23,1.21,0,.32,0,.64,0,.96-.01.67-.57,1.21-1.25,1.2-.67-.01-1.21-.57-1.2-1.25,0-.3,0-.59,0-.89,0-.32.12-.61.32-.83ZM37.88,61.32c.16-.18.38-.31.63-.37.29-.07.58-.14.87-.21.65-.17,1.32.22,1.49.87.17.65-.22,1.32-.87,1.49-.31.08-.62.16-.94.23-.66.15-1.31-.26-1.47-.92-.09-.41.03-.81.29-1.1ZM60.2,40.98c.32-.35.82-.5,1.29-.34.64.21.99.9.77,1.55-.1.3-.21.61-.32.91-.23.64-.93.96-1.57.73-.63-.23-.96-.93-.73-1.57.1-.28.2-.56.29-.84.06-.17.14-.31.25-.44ZM47.27,57.42c.07-.08.16-.15.26-.22.25-.16.5-.32.75-.48.56-.38,1.32-.22,1.7.34s.22,1.32-.34,1.7c-.27.18-.54.35-.81.53-.57.36-1.33.18-1.68-.39-.3-.47-.23-1.07.13-1.47ZM55.45,49.96c.42-.47,1.14-.54,1.65-.15.54.41.64,1.18.23,1.71-.19.25-.39.51-.6.76-.43.52-1.2.6-1.72.18-.52-.43-.6-1.2-.18-1.72.19-.23.37-.46.55-.7.02-.03.04-.06.07-.08Z"></path><g><path class="cls-4" d="M50.47,48.64c9.17-10.3,8.26-26.07-2.04-35.24-10.3-9.17-26.07-8.26-35.24,2.04-9.17,10.3-8.26,26.07,2.04,35.24,10.3,9.17,26.07,8.26,35.24-2.04Z"></path><path class="cls-5" d="M49.89,49.27c8.2-8.59,9.06-21.51,2.77-31-.48-.73-3.15-2.19-6.9-.81-3.75,1.38-6.39,2.56-10.35,4.59-3.96,2.03-7.78,4.47-7.78,4.47,0,0-2.66,1.36-1.56,3.09,1.6,2.5,3.9,4.7,3.86,4.64,0,0-2.88,2.99-3.17,3.17-.47.29-.7.85-.34,1.25.13.14,1.97,1.8,3.36,3.06.87.78,1.56,1.41,1.56,1.41l-2.03.48-5.95-2.25-3.75,3.49c-2.44,2.6-1.61,7.98-.42,8.72,9.77,5.74,22.54,4.25,30.7-4.3Z"></path></g></g></g></g></svg> 